<svg xmlns="http://www.w3.org/2000/svg" version="1.1" viewBox="84.8206 234.6564 430.3589 130.6873">
  <path d="M144.89529418945312 298.4293212890625C127.61780675252278 289.52879842122394 106.28272501627605 266.8848164876302 104.0575942993164 251.30889892578125C101.83246358235677 235.73298136393228 117.53927485148112 215.3141301472982 131.5445098876953 204.97381591796875C145.54974492390951 194.6335016886393 159.1623051961263 190.9685821533203 188.08900451660156 189.2670135498047C217.0157038370768 187.56544494628906 269.8952814737956 196.20419565836588 305.1047058105469 194.764404296875C340.31413014729816 193.32461293538412 372.5130869547526 181.67538706461588 399.3455505371094 180.62826538085938C426.1780141194661 179.58114369710287 448.0366617838542 183.11518096923828 466.0994873046875 188.48167419433594C484.1623128255208 193.8481674194336 496.46596272786456 199.34554799397787 507.7225036621094 212.8272247314453C518.9790445963541 226.30890146891275 537.6963246663412 255.62827809651694 533.6387329101562 269.3717346191406C529.5811411539713 283.11519114176434 504.45025126139325 290.83770243326825 483.376953125 295.2879638671875C462.30365498860675 299.73822530110675 429.97381083170575 295.54974365234375 407.1989440917969 296.07330322265625C384.424077351888 296.59686279296875 370.02617899576825 295.9424133300781 346.7277526855469 298.4293212890625C323.4293263753255 300.9162292480469 290.57592519124347 309.9476318359375 267.40838623046875 310.9947509765625C244.240847269694 312.0418701171875 228.14136759440103 306.8062744140625 207.72251892089844 304.7120361328125C187.30367024739584 302.6177978515625 162.17278162638345 307.32984415690106 144.89529418945312 298.4293212890625C127.61780675252278 289.52879842122394 106.28272501627605 266.8848164876302 104.0575942993164 251.30889892578125"
        fill="hsl(347, 100%, 94%)"
        transform="matrix(1,0,0,1,-19.025009155273438,54.211944580078125)" />
</svg>