<svg version="1.1" xmlns="http://www.w3.org/2000/svg" width="300" height="232" 
     viewBox="-8 -8 316 250">
  <path
    d="M0 0 C8.75151602 7.29293001 15.13972721 16.64046793 19.546875 27.1015625 C19.94003906 27.97167969 20.33320313 28.84179688 20.73828125 29.73828125 C23.65266823 37.34412045 23.93377523 44.58179084 23.984375 52.6640625 C23.9944458 53.7044165 24.0045166 54.74477051 24.01489258 55.81665039 C23.89893823 66.26323212 21.75090139 75.85206478 16.859375 85.1015625 C16.50979736 85.77743408 16.16021973 86.45330566 15.80004883 87.1496582 C10.50318423 97.19363436 4.04100141 106.05389119 -3.40454102 114.58251953 C-5.34321215 116.81149934 -7.26126255 119.05483085 -9.15625 121.32104492 C-15.90235455 129.36036583 -22.99468554 136.92954159 -30.45458984 144.30883789 C-32.2217321 146.05747474 -33.98049115 147.8142324 -35.73828125 149.57226562 C-40.95146521 154.76889951 -46.18009666 159.88330788 -51.78417969 164.66235352 C-53.36454748 166.02517799 -54.87569398 167.43181286 -56.375 168.8828125 C-80.19885322 191.78530123 -108.57666016 211.94779863 -142.5859375 211.4375 C-155.64422691 210.93317411 -166.22524487 205.16486092 -175.51171875 196.08984375 C-180.851719 190.24455315 -187.453125 182.35037825 -187.453125 174.1015625 C-188.71125 174.3078125 -189.969375 174.5140625 -191.265625 174.7265625 C-211.20752686 176.67832311 -234.32061558 171.02589964 -250.0390625 158.3359375 C-262.329799 147.71944815 -275.25334608 132.29205107 -276.67260742 115.50561523 C-277.50749415 94.85398309 -274.65562922 78.88494986 -260.328125 63.0390625 C-250.28421729 52.35320526 -238.81802602 43.89617597 -226.453125 36.1015625 C-225.7715332 35.66875977 -225.08994141 35.23595703 -224.38769531 34.79003906 C-163.94068246 -3.43257553 -65.99094672 -51.06942692 0 0 Z "
    fill="#c59fbe"
    stroke="#ffffff"
    stroke-width="12"
    transform="translate(276.453125,20.8984375)"
  />
</svg>