<svg viewBox="0 166.8 598.8 232.8" xmlns:xlink="http://www.w3.org/1999/xlink" version="1.1" xmlns="http://www.w3.org/2000/svg" style="max-height: 500px" width="598.8" height="232.8"><path stroke="hsl(80.36deg 45.9% 76.08%)" stroke-width="0" fill-opacity="1" transform="matrix(1,0,0,1,0.8501033782958984,-28.022109985351562)" fill="hsl(80.36deg 45.9% 76.08%)" d="M5.890052578205541 404.4502724053357C-25.261779128159407 374.8691210788383 -24.869108496750716 273.95287657200237 4.319371959919408 240.31413348932006C33.50785241658953 206.67539040663777 113.61256013448502 209.81676563043334 181.0209353182263 202.61781390924193C248.42931050196756 195.41886218805053 339.39789861575235 191.3612628024711 408.7696230623669 197.12042316217162C478.1413475089815 202.87958352187215 566.3612317456351 206.67539294976928 597.2512819979138 237.17277606744506C628.1413322501925 267.67015918512084 615.8376670890597 349.0837766371065 594.1099245760388 380.1047218682263C572.3821820630179 411.1256670993461 534.0314206494437 417.0157275241508 466.8848269197888 423.2984474541638C399.7382331901338 429.5811673841768 268.06282458837296 420.94240395644243 191.2303621981091 417.80104144830443C114.39789980784525 414.65967894016643 37.041884284570486 434.03142373183306 5.890052578205541 404.4502724053357C-25.261779128159407 374.8691210788383 -24.869108496750716 273.95287657200237 4.319371959919408 240.31413348932006"/></svg>